<?xml version="1.0" encoding="utf-8"?>
<!-- Generator: Adobe Illustrator 24.2.2, SVG Export Plug-In . SVG Version: 6.00 Build 0)  -->
<svg version="1.1" id="Calque_1" xmlns="http://www.w3.org/2000/svg" xmlns:xlink="http://www.w3.org/1999/xlink" x="0px" y="0px"
	 viewBox="0 0 300 300" style="enable-background:new 0 0 300 300;" xml:space="preserve">
<style type="text/css">
	.st0{fill:#418A8C;}
	.st1{fill:#FFFFFF;}
	.st2{fill:none;}
	.st3{enable-background:new    ;}
</style>
<path class="st0" d="M135.7,37.7c-0.2,0.2-0.2,1.6,0.1,3.3c0.4,2.7,0.8,3,4.1,3.1c6.4,0.2,24.3,0,24.6-0.3c0.1-0.2,0.6-1.7,0.9-3.4
	l0.7-3.1H151C142.7,37.4,135.8,37.5,135.7,37.7z M137.7,47.8c-0.2,0.4,0.9,7.7,2.6,16.4l2.9,15.6l-2.6,3.4
	c-3.2,4.3-3.4,9.7-0.6,15.3c2.5,4.8,2.5,4.7-0.2,4.3c-5.6-0.8-7.7-13.7-3.3-20.2c1.4-2,2.5-4.1,2.5-4.6c0-0.6-8.5-1-21.5-1H96
	l1.1,2.7c1.8,4.9,4.9,9.2,9.6,13.3c4.4,3.8,4.5,4.1,3.3,7c-0.7,1.7-2,3-3,3c-2.4,0-3-1-1.9-2.9c0.9-1.3,0.2-2.5-3-5.8
	c-8.2-8.7-11.7-17.9-8.3-21.9c2.2-2.6,10.4-6.9,15.1-7.9c3-0.6,3.2-0.9,1.9-1.9c-0.9-0.6-2.6-1.8-3.7-2.6c-2.7-1.8-2.7-3.6,0-4.3
	c1.3-0.4,2-1.2,1.7-2.4c-0.3-1.6-1.4-1.8-9.8-1.8s-9.5,0.2-9.8,1.8c-0.3,1.2,0.4,2,1.7,2.4c3.5,0.9,2.9,2-4.6,7.9L83,66.2v15.2
	c0,14.9,0.1,15.3,2.5,17.6c1.3,1.2,2.2,2.7,1.9,3.1c-0.3,0.5-3.9,0.9-7.9,0.9c-6.7,0-7.6-0.2-9-2.4c-1.5-2.2-1.4-2.5,1.8-5.7
	c3.7-3.7,7.5-13.4,6.4-16.4c-0.6-1.5-2.6-1.6-18.7-1.4c-9.8,0.1-18.4,0.5-19,0.9c-0.6,0.4-0.8,2-0.4,3.8l0.7,3.2h11.9
	c6.6,0,12.8,0.5,13.9,1c2.6,1.4,2.4,5-0.6,9.4c-1.4,2-2.5,4.6-2.5,5.6c0,2.5-2.2,2.6-4.4,0.1c-1.6-1.7-1.5-2,1.9-5.4
	C67.8,89.4,67.1,89,50,89c-8.2,0-15,0.3-15,0.6c0,1.4,4.2,7.4,5.8,8.3c1.5,0.9,1.5,1.1-0.2,3c-1,1.1-3.4,2.1-5.5,2.3
	c-3.2,0.3-3.6,0.6-4.1,3.6c-0.4,3-1.1,3.6-5.2,5c-16.2,5.7-21,26.9-9.1,39.4l2.7,2.8h-4.3c-3.8,0-4.2,0.2-3.9,2.2
	c0.3,2.2,0.7,2.3,13.1,2.6c8.4,0.1,12.6-0.1,12.2-0.8c-0.3-0.5-1.7-1-3.1-1c-2.7,0-7.4-4-7.4-6.4c0-2.2,2.9-4.6,5.6-4.6
	c1.3,0,2.4-0.5,2.4-1c0-0.6,4.7-1,12-1h12v3.5c0,2-0.7,5.2-1.5,7.2c-0.8,1.9-1.5,3.7-1.5,3.9c0,0.2,52.6,0.4,116.9,0.4
	c101.1,0,117-0.2,118.1-1.5c1.8-2.2,0.3-3.5-4.1-3.5c-4.4,0-4.3,0.1-2.7-5.1c1-3.4,1.4-3.8,3.5-3.3c1.6,0.4,2.3,0.2,2.3-0.9
	c0-0.8-0.6-1.7-1.4-2c-0.7-0.3-1.8-1.8-2.4-3.4c-0.8-2.5-0.5-4.1,1.9-9.7c4.3-10.1,3.7-15.4-1.9-17.4c-2.8-1-28.7-1.6-30.2-0.7
	c-0.4,0.2-0.2,2,0.4,4l1.1,3.5h10.2c9.2,0,10.3-0.2,11.3-2c1.2-2.3,5.9-2.7,7.8-0.8c0.7,0.7,1.2,2.3,1.2,3.6c0,3-4.8,13.5-5.9,12.8
	c-0.4-0.3-1.6-2.6-2.5-5.1l-1.8-4.5h-20.4l-1.3,4.9c-1.5,6-3.1,8.4-4.9,7.2c-1.1-0.7-1-1.5,0.3-4.7c2.4-5.8,2.3-13.9-0.4-17.4
	c-1.1-1.6-2.1-3.4-2.1-4c0-0.6,4.2-1,11.6-1c11.4,0,11.5,0,11.2-2.3c-0.3-1.9-1-2.3-5.8-2.7c-5.6-0.5-11-3.2-11-5.5
	c0-0.6,0.7-2.5,1.5-4.2c0.8-1.6,1.8-5.1,2.1-7.7l0.7-4.6h-9.6l0.7,5.6c0.3,3.1,1.3,6.6,2.1,7.7c0.8,1.2,1.5,2.7,1.5,3.3
	c0,2-6.5,5.4-10.3,5.4c-4.4,0-5.2-1.1-2.6-3.3c1.7-1.5,1.9-3,1.9-13.6V74.2l-4.7-4.2c-4.3-3.6-4.6-4.2-3-5.1c2.7-1.6,1-2.9-3.9-2.9
	c-4.8,0-5.2,0.4-2.7,3.2c0.9,1,1.2,1.8,0.7,1.8s-1.7,0.7-2.6,1.4c-1.6,1.2-1.5,1.6,2.1,5.4c4.9,5.1,6.8,11.9,5.1,18.1
	c-1.4,5.1-6.4,11.1-9.4,11.1c-3.6,0-3.7-1.1-0.3-3.4c4.5-3,6.9-8.1,6.4-13.5c-1.1-10.4-12.7-17.3-21.6-12.6c-4.1,2.1-7.9,7-8.7,11.1
	c-0.9,4.6,1.9,11.8,5.7,14.6c3.5,2.6,3.7,3.8,0.5,3.8s-8.2-5.8-9.6-11.1c-1.7-6.2,0.7-14.4,5.4-18.1c2-1.7,2-1.8,0.1-1.8
	c-3.4,0-9.7,4.3-11.6,8c-3.6,6.7-2,14.2,4.1,19.3c1.6,1.4,3,2.8,3,3.2c0,0.3-5.3,0.4-11.7,0.3c-11.5-0.3-11.8-0.3-13.2-3
	c-1.5-2.6-1.4-2.7,3.6-7.2c2.8-2.6,6.3-7,7.8-9.9l2.6-5.2l-11.7-0.3c-6.4-0.1-11.9,0-12.2,0.3c-0.4,0.3-0.1,1.4,0.6,2.3
	c3.1,4.5,4.4,7.8,4.4,11.7c0,4.7-2.4,10.3-4.8,11.2c-2.4,0.9-2.9-0.6-1.2-3.5c3.4-6,2.9-12.3-1.2-16.7l-2.1-2.2l2.6-13.9
	c1.4-7.7,2.8-14.9,3-16.1c0.5-2.2,0.4-2.2-9.7-1.9c-5.7,0.2-11.5-0.1-13-0.5C139.3,47.5,137.9,47.5,137.7,47.8z M222.3,80
	c3.2,3.6,4,9.7,1.5,12.7c-1.7,2.1-2.6,0.5-2.5-4.3c0-3.8-0.4-5-2.4-6.5c-3-2.3-5.8-2.4-8.8-0.3c-1.9,1.4-2.5,1.4-3.2,0.3
	c-0.4-0.8-0.3-1.9,0.4-2.7C210.7,75,218.2,75.4,222.3,80z M152.1,87.8c-0.7,1.4-0.8,2.3-0.1,2.7c0.5,0.3,1-0.1,1-0.9
	c0-1,0.9-1.6,2.5-1.6c1.6,0,2.5,0.6,2.5,1.5c0,1.6-0.6,1.9-5.1,2.9c-1.8,0.4-2.9,1.4-3.3,3.2c-0.8,3.1-4,2.9-4.2-0.3
	c-0.1-1.3,0.2-2.1,0.5-1.8c1.7,1,3.4-1.6,3.3-5c-0.2-4.8,0.6-6.1,2.5-4.2C152.9,85.4,152.9,86.2,152.1,87.8z M147.8,90.3
	c0.3,1.4-0.1,1.8-2,1.5c-1.2-0.2-2.4-1.1-2.6-2.1c-0.3-1.4,0.1-1.8,2-1.5C146.4,88.4,147.6,89.3,147.8,90.3z M155.4,94.6
	c0.9,2.4,0.7,3.4-0.8,3.4c-1.8,0-3.9-2.7-3.1-4C152.4,92.5,154.7,92.8,155.4,94.6z M40.7,116.1C46.8,118.4,53,126.9,53,133
	c0,4.7-3.3,3.7-4.1-1.3c-1.2-7.4-7.6-12.7-15.2-12.7c-12.3,0-19.2,13.7-12.2,24.4c1.5,2.3,1.6,2.9,0.5,3.6c-3.2,2-7-5.3-7-13.2
	C15,120.9,28.6,111.5,40.7,116.1z M113.9,117.9c6.6,4.7,8.6,11.9,5.3,19.4c-2.9,6.6-7,8.9-14.9,8.5c-6.7-0.4-10-2.5-12.9-8
	c-3-5.9-0.9-16.1,4-19.4C101,114.8,109.2,114.6,113.9,117.9z M143.1,116c5.2,1.5,6.4,3.2,4.4,6.3c-1.4,2.2-1.9,2.4-4.9,1.5
	c-4.8-1.5-8.1-0.4-9.6,3.2c-1.7,4.1-0.2,9.1,3.1,10.7c1.8,0.9,3.5,0.9,6.8,0.1c3.5-0.9,4.5-0.8,5.2,0.3c3,4.7-2.2,8.4-10.9,7.7
	c-4.8-0.4-6-1-8.8-4.1c-4-4.3-5.1-9.5-3.5-15.7c1.4-5.2,3.8-8,8.4-9.7C137.4,114.8,138.7,114.8,143.1,116z M85.4,118.2
	c0.3,1.3,0.6,7.3,0.6,13.4c0,12.6-1,15.1-5.3,14L78,145v-22h-5.9l-0.3,11.2c-0.3,10.7-0.4,11.3-2.4,11.6c-4.4,0.6-5.4-2-5.4-14.8
	c0-6.5,0.3-12.5,0.6-13.4c0.5-1.3,2.4-1.6,10.4-1.6C84.3,116,84.8,116.1,85.4,118.2z M164.3,124l4.3,8l4.5-8c4.1-7.5,4.6-8,7.6-8
	c2.2,0,3.3,0.5,3.3,1.4c0,2-11.8,22.6-14.8,25.8c-2,2.2-3.5,2.8-6.6,2.8c-6.6,0-11.4-6.4-6.7-8.9c1.4-0.8,2.4-0.6,4.1,0.9
	c2.2,1.9,4,2.6,4,1.5c0-0.3-2.4-4.7-5.3-9.8c-7.8-13.5-7.8-13.7-2.1-13.7C159.7,116,160.2,116.5,164.3,124z M206.8,127.7
	c0.2,9.1,0.6,11.3,1.7,11.3c1.8,0,2.8,3.5,2.3,8.1c-0.3,3.2-0.6,3.4-3.8,3.4c-2.9,0-3.6-0.4-3.8-2.3c-0.3-2.1-0.8-2.2-7.8-2.2
	c-7.3,0-7.4,0-7.4,2.6c0,2.3-0.3,2.5-3.2,2.2c-3.2-0.3-3.3-0.4-3.6-5.6c-0.3-4.8-0.1-5.3,2.2-6.1c2.9-1.2,3.3-2.3,4.1-11.6
	c1.1-12.5,0.3-11.6,10.3-11.3l8.7,0.3L206.8,127.7z M230.7,117.2c2.2,2.8,11.2,26,10.7,27.3c-1.2,3-8.4,0.7-8.4-2.6
	c0-0.5-2.4-0.9-5.3-0.9c-4.8,0-5.5,0.3-6.5,2.5c-1.2,2.5-2.7,3-5.6,1.9c-2.3-0.9-2.1-2.1,3-14.1c2.5-5.9,5-11.8,5.5-13.1
	C225,115.8,229.1,115.1,230.7,117.2z M34.5,130.3c-0.1,2.9,1,3.6,1.9,1.2c0.7-1.9,4.6-2,4.6-0.1c0,1.7-2.6,4-3.8,3.2
	c-0.9-0.5-2.4,1.9-3.6,5.6c-0.3,1-1.2,1.8-2.1,1.8c-2.1,0-1.9-3.7,0.3-4.9c1.7-1.1,1.5-1.2-2.8-1.4c-1.5-0.1-2.5-0.8-2.5-1.7
	c0-1.1,1-1.5,3.3-1.3c2.7,0.1,3.1-0.1,2.1-1.3c-1.4-1.7-0.4-4.7,1.4-4.1C33.9,127.5,34.5,128.9,34.5,130.3z M264.5,133.6
	c2,2.1,1.5,4.9-0.9,4.9c-2.3,0-4.1-2.7-3.3-4.9C261.1,131.6,262.4,131.6,264.5,133.6z M274,134.3c0,4-4.4,6.5-5.7,3.2
	c-0.6-1.8,2.3-5.5,4.4-5.5C273.4,132,274,133,274,134.3z M39.7,137.6c0.3,0.8,0.1,2-0.6,2.7c-1.4,1.4-4.7-1.5-3.7-3.2
	C36.4,135.5,39,135.8,39.7,137.6z M269.5,141.5c0,1.3-0.8,2.1-2.2,2.3c-1.9,0.3-2.3-0.1-2.3-2.3s0.4-2.6,2.3-2.3
	C268.7,139.4,269.5,140.2,269.5,141.5z M263.8,143.2c0.4,2-3,4-5.2,3.2c-1.9-0.7-2.1-4-0.3-4.8C260.6,140.7,263.5,141.5,263.8,143.2
	z M276.8,142.2c1.7,1.7,1.5,2.6-0.6,3.7c-2.4,1.3-6.4-1.2-5.6-3.4C271.3,140.7,275.1,140.5,276.8,142.2z M269.3,147.2
	c1.4,2.1,0.2,4.8-2.2,4.8s-3.4-2.5-2-5.1C266.2,144.7,267.8,144.8,269.3,147.2z"/>
<path class="st0" d="M100,125c-3.1,3.1-2.7,9.3,0.6,11.9c3.5,2.8,6.9,2.6,9.9-0.4c3.1-3,3.2-7.3,0.4-10.9
	C108.3,122.3,103,122,100,125z M194.4,131l-0.9,8h5.5v-8c0-7.1-0.2-8-1.8-8C195.7,123,195.2,124.3,194.4,131z M226.1,131.1
	c-1.4,4.1-1.5,3.9,1.5,3.9c2.4,0,2.5-0.3,1.9-2.8C228.5,128,227.3,127.6,226.1,131.1z M130.6,55.3c-1.6,1.2-1.6,1.4,0.3,3.1
	c2.3,2.1,2.8,5.5,0.9,6c-0.7,0.2-5.8,1.1-11.4,1.9c-9.6,1.5-21.4,5.1-21.4,6.5c0,0.4,8.8,0.6,19.6,0.4l19.6-0.3l-0.6-2.2
	c-0.3-1.2-1.1-5.5-1.8-9.5C134.6,53.9,133.8,53,130.6,55.3z M163.7,69.7c-0.3,1.6-0.5,2.9-0.4,3s4.6,0.3,10,0.5
	c9.3,0.3,9.7,0.2,7.7-1.4c-2.2-1.8-11.5-4.8-14.8-4.8C164.8,67,164.1,67.9,163.7,69.7z M38.4,151.2c1.2,5.9,3.2,7.8,8,7.8
	c4.2,0,4.5-0.2,6-4c2.7-6.9,2.6-7-6.5-7h-8.1L38.4,151.2z M30.2,151.2c0.3,0.7,1.5,1.5,2.8,1.6c2.1,0.3,2.2,0.2,1.1-1.2
	C32.5,149.7,29.7,149.5,30.2,151.2z M85.5,169.2c-0.3,0.8-0.4,7-0.3,13.9l0.3,12.4l8.8,0.3c8.4,0.3,8.7,0.4,8.7,2.7
	c0,1.3,0.6,2.5,1.3,2.8c2.7,0.9,3.7-0.6,3.7-5.4c0-4.2-0.3-4.9-2-4.9c-1.8,0-2-0.8-2.2-11.3l-0.3-11.2h-5l-0.3,11.2L97.9,191h-6.8
	l-0.3-11.3c-0.3-10.8-0.4-11.2-2.6-11.5C87,168,85.8,168.5,85.5,169.2z M114.4,169.3c-0.2,0.7-0.3,6.9-0.2,13.8l0.3,12.4H128
	c12.8,0,13.5-0.1,13.5-2c0-1.8-0.8-2-11-2.5l-11-0.5v-6l10.3-0.3c9.4-0.2,10.2-0.4,10.2-2.2c0-2.3,0.3-2.2-10.7-2.1
	c-8.6,0-10.8-1-10.1-4.6c0.3-1.6,1.8-1.9,11.3-2.3c10.2-0.5,11-0.7,11-2.5c0-1.9-0.8-2-13.3-2.3C117.9,168,114.8,168.2,114.4,169.3z
	 M149.5,169.2c-0.3,0.8-0.4,7-0.3,13.9l0.3,12.4h2.5c2.3,0,2.5-0.4,2.8-5.8l0.3-5.8l3.7,0.3c3.7,0.3,3.7,0.3,3.8,4.9
	c0.1,5.4,0.8,6.9,3.5,6.9c1.8,0,1.9-0.8,1.9-14c0-13-0.1-14-1.9-14c-2.7,0-3.8,2-3.7,6.8l0.1,4.2h-7.4l-0.3-5.3
	c-0.3-4.5-0.6-5.2-2.6-5.5C151,168,149.8,168.5,149.5,169.2z M174,170.4c0,2.1,0.5,2.5,3.3,2.8l3.2,0.3l0.5,11
	c0.5,10.5,0.6,11,2.8,11.3c1.3,0.2,2.2-0.2,2.3-1c0-0.7,0.1-5.8,0.2-11.3l0.2-10l3.5-0.5c2.7-0.4,3.5-1,3.5-2.5c0-1.8-0.8-2-9.7-2.3
	l-9.8-0.3V170.4z M200,182.1c0,14,0,14,2.3,13.7c1.7-0.2,2.3-1.1,2.7-3.8c0.5-3.3,0.7-3.5,5.1-4c6.3-0.7,9.7-3.2,10.5-7.5
	c1.5-7.9-4.1-12.5-15.1-12.5H200V182.1z M212.5,174.2c1.7,0.8,2.5,1.9,2.5,3.8c0,3.6-1.7,5-6.2,5H205v-4.3c0-2.4,0.3-4.7,0.7-5
	C206.7,172.7,209.6,172.9,212.5,174.2z"/>
<path class="st0" d="M32.8,171c-5.4,2.9-9,8.1-9.6,14c-0.5,5.6,0.4,10.4,1.8,9.5c0.5-0.3,0.7,0.1,0.4,0.9c-0.4,1,0.6,2.7,2.6,4.5
	c6.8,6.2,17.4,5.1,22-2.4c2.9-4.7,2.5-11.5-0.7-11.5c-1.1,0-1.3,0.7-0.8,3.1c2.2,10-10.4,15.5-18.7,8c-6-5.3-4.6-17.2,2.5-22.3
	c4.6-3.3,14.1-3.7,19.3-0.9c5,2.7,6.4,3.8,9.8,8.3c4,5.3,6.6,14.6,6.6,23.3v7.3l-6.7,3.2c-11.4,5.3-16.8,12-14.3,18
	c3.7,8.8,16.7,1.3,21.6-12.5c2.4-6.9,3.1-7.2,16.9-8.1c15.2-1.1,31.3,2,51,9.8c4.4,1.7,8.4,3.4,8.8,3.8c0.5,0.4-2.9,2.3-7.5,4.2
	l-8.3,3.5l-4.7-2.3c-13.9-7-36-8.8-42.5-3.4c-5.4,4.4-4.6,10.4,1.9,14c8.4,4.7,25.2,3.4,40.5-3.1l4.2-1.8l4.8,3.6
	c5.4,4,11,10.7,14.2,17.1c1.2,2.3,2.5,4.2,2.9,4.2s2-2.6,3.7-5.8c3.1-6,14.6-18.2,17.2-18.2c0.9,0,5.9,1.4,11.2,3.2
	c8.2,2.8,11.1,3.2,19.6,3.3c11.9,0,16.7-1.8,19.3-7.2c1.5-3.1,1.5-3.7,0.1-6.1c-2.4-4.4-7.3-6.2-16.5-6.2c-10.7,0-17.1,1.3-26.4,5.3
	l-7.6,3.3l-7.3-3c-3.9-1.7-7.2-3.6-7.2-4.1c0-0.6,2.8-2.2,6.1-3.6c3.3-1.4,5.7-2.9,5.3-3.4c-0.5-0.4-0.2-0.5,0.5-0.1
	c0.7,0.4,4.7-0.4,9-1.8c15.6-5.2,34.7-6.9,47.1-4.3c5.5,1.2,5.5,1.2,7.8,7c5,13.2,14.8,20.2,20.3,14.7c1.1-1.1,2-3.2,2-4.6
	c0-3.4-3.1-8.6-4.7-8c-0.7,0.3-1.2,0-1-0.6c0.3-1.4-6.8-6.4-11.3-7.9s-5-2.3-5-8.6c0-19.5,10.8-34.2,25.3-34.3
	c9.9,0,16.7,6.2,16.7,15.4c0,6.4-3.1,11.2-8.1,12.7c-7.8,2.4-15.6-3.6-14.3-10.9c0.7-3.6-0.9-4.4-2.6-1.2
	c-2.8,5.2,2.9,14.3,9.7,15.6c10.5,2,18.4-4.9,18.5-16c0.1-5.8-1.6-9.8-5.9-13.8c-3.7-3.6-7.3-4.8-13.8-4.8
	c-16.3,0-28.5,15.7-28.5,36.8v6.4l-2.7-0.6c-6.7-1.5-21.8-1.8-30.5-0.7c-9.2,1.3-25.7,6.3-39.2,11.9l-7,2.8l-12-4.8
	c-19.3-7.9-28.7-10-44.6-10.2c-7.4,0-15.6,0.3-18.2,0.7l-4.8,0.8v-7.4c0-16.3-7.2-29.1-19.3-34.2C46.6,168.4,37.4,168.6,32.8,171z
	 M64.5,223.2c-2,4.8-8.6,11.8-11.2,11.8c-1.1,0-2.6-0.7-3.3-1.5c-2.8-3.4,2.6-10,11.6-14.5C66.2,216.8,66.8,217.8,64.5,223.2z
	 M240,219c5.3,2.7,12,9.2,12,11.7c0,1.1-0.7,2.7-1.6,3.4c-3.6,3-13-6-15-14.4C234.7,216.5,234.9,216.4,240,219z M108.7,230
	c6.1,1.4,15.3,5,15.3,6c0,0.5-3.7,2.1-8.2,3.6C100,245,83,243,82.2,235.7c-0.5-4.4,4.4-6.7,14.3-6.7
	C100.9,229,106.4,229.5,108.7,230z M159.6,233l8.7,4.1l-3.3,2.4c-3.9,2.8-11.7,12.1-12.6,14.7c-0.9,2.8-1.7,2.2-6.2-4.2
	c-2.3-3.2-6-7.4-8.2-9.1c-2.2-1.8-4-3.6-4-4c0-0.4,3-1.9,6.8-3.5c3.7-1.5,7.1-3.1,7.7-3.6C149.9,228.6,150.1,228.7,159.6,233z
	 M214.9,230.1c1.7,0.6,3.6,2,4.2,3c4.6,8.7-15.5,12.6-33.8,6.5c-4.6-1.5-8.3-3-8.3-3.4c0-1,8.4-4.3,14.5-5.8
	C197.9,228.8,210.8,228.7,214.9,230.1z"/>
<path class="st0" d="M57.5,110h186v42.9h-186V110z"/>
<path class="st1" d="M75,167.9h150.2v33.6H75V167.9z"/>
<path class="st2" d="M45.3,117.7h216.1v42H45.3V117.7z"/>
<g class="st3">
	<path class="st1" d="M88.7,118.5l-10.5,25.8h-3.1l-10.5-25.8h2.8c0.3,0,0.6,0.1,0.8,0.2c0.2,0.2,0.3,0.4,0.4,0.6l7.3,18.2
		c0.2,0.4,0.3,0.9,0.5,1.3c0.1,0.5,0.3,1,0.4,1.5c0.1-0.5,0.2-1,0.4-1.5c0.1-0.5,0.3-0.9,0.4-1.3l7.3-18.2c0.1-0.2,0.2-0.4,0.4-0.6
		c0.2-0.2,0.5-0.3,0.8-0.3H88.7z"/>
	<path class="st1" d="M88.2,128.6c1-1,2.1-1.7,3.3-2.2s2.5-0.7,3.9-0.7c1,0,1.9,0.2,2.7,0.5c0.8,0.3,1.5,0.8,2,1.4s0.9,1.3,1.2,2.2
		c0.3,0.9,0.4,1.8,0.4,2.8v11.7h-1.4c-0.3,0-0.6-0.1-0.7-0.2c-0.2-0.1-0.3-0.3-0.4-0.6l-0.4-1.7c-0.5,0.4-0.9,0.8-1.4,1.2
		c-0.5,0.3-0.9,0.6-1.4,0.9c-0.5,0.2-1,0.4-1.6,0.5c-0.6,0.1-1.2,0.2-1.9,0.2c-0.7,0-1.4-0.1-2-0.3s-1.2-0.5-1.6-0.9
		c-0.5-0.4-0.8-0.9-1.1-1.5c-0.3-0.6-0.4-1.3-0.4-2.2c0-0.7,0.2-1.4,0.6-2.1c0.4-0.7,1-1.3,1.9-1.8c0.9-0.5,2-0.9,3.5-1.3
		c1.4-0.3,3.2-0.5,5.3-0.6v-1.4c0-1.4-0.3-2.5-0.9-3.2s-1.5-1.1-2.7-1.1c-0.8,0-1.5,0.1-2,0.3c-0.5,0.2-1,0.4-1.4,0.7
		c-0.4,0.2-0.7,0.5-1,0.7c-0.3,0.2-0.6,0.3-0.8,0.3c-0.2,0-0.4-0.1-0.6-0.2c-0.2-0.1-0.3-0.3-0.4-0.4L88.2,128.6z M98.6,136
		c-1.5,0-2.7,0.2-3.8,0.4c-1,0.2-1.9,0.4-2.5,0.7c-0.7,0.3-1.1,0.7-1.4,1.1c-0.3,0.4-0.4,0.9-0.4,1.4c0,0.5,0.1,0.9,0.2,1.2
		c0.2,0.3,0.4,0.6,0.6,0.9c0.3,0.2,0.6,0.4,1,0.5c0.4,0.1,0.8,0.2,1.2,0.2c0.6,0,1.1-0.1,1.5-0.2s0.9-0.3,1.3-0.5s0.8-0.5,1.2-0.8
		c0.4-0.3,0.7-0.6,1.1-1V136z"/>
	<path class="st1" d="M110.7,120.3c0,0.3-0.1,0.6-0.2,0.9s-0.3,0.5-0.5,0.7c-0.2,0.2-0.5,0.4-0.7,0.5c-0.3,0.1-0.6,0.2-0.9,0.2
		c-0.3,0-0.6-0.1-0.9-0.2c-0.3-0.1-0.5-0.3-0.7-0.5c-0.2-0.2-0.4-0.4-0.5-0.7s-0.2-0.6-0.2-0.9s0.1-0.6,0.2-0.9
		c0.1-0.3,0.3-0.5,0.5-0.7s0.4-0.4,0.7-0.5c0.3-0.1,0.6-0.2,0.9-0.2c0.3,0,0.6,0.1,0.9,0.2c0.3,0.1,0.5,0.3,0.7,0.5s0.4,0.5,0.5,0.7
		C110.6,119.7,110.7,120,110.7,120.3z M110,126v18.2h-3.2V126H110z"/>
	<path class="st1" d="M125.9,129c-0.1,0.3-0.4,0.4-0.7,0.4c-0.2,0-0.4-0.1-0.6-0.2c-0.2-0.1-0.5-0.3-0.8-0.4
		c-0.3-0.2-0.7-0.3-1.2-0.4c-0.5-0.1-1-0.2-1.6-0.2c-0.5,0-1,0.1-1.5,0.2c-0.4,0.1-0.8,0.3-1.1,0.6c-0.3,0.2-0.5,0.5-0.7,0.8
		c-0.2,0.3-0.2,0.7-0.2,1c0,0.5,0.1,0.9,0.4,1.2c0.3,0.3,0.6,0.6,1.1,0.8c0.4,0.2,0.9,0.4,1.5,0.6c0.6,0.2,1.1,0.4,1.7,0.6
		s1.2,0.4,1.7,0.7c0.6,0.2,1.1,0.5,1.5,0.9c0.4,0.4,0.8,0.8,1.1,1.3c0.3,0.5,0.4,1.1,0.4,1.9c0,0.8-0.1,1.6-0.4,2.3
		c-0.3,0.7-0.7,1.3-1.3,1.9c-0.6,0.5-1.3,0.9-2.2,1.2c-0.9,0.3-1.8,0.5-3,0.5c-1.3,0-2.4-0.2-3.5-0.6s-1.9-0.9-2.6-1.6l0.8-1.2
		c0.1-0.2,0.2-0.3,0.3-0.4s0.3-0.1,0.5-0.1c0.2,0,0.4,0.1,0.7,0.3c0.2,0.2,0.5,0.4,0.9,0.6s0.8,0.4,1.3,0.6c0.5,0.2,1.1,0.3,1.8,0.3
		c0.6,0,1.2-0.1,1.6-0.2s0.9-0.4,1.2-0.7c0.3-0.3,0.5-0.6,0.7-1c0.1-0.4,0.2-0.7,0.2-1.2c0-0.5-0.1-0.9-0.4-1.3
		c-0.3-0.3-0.6-0.6-1.1-0.8c-0.4-0.2-1-0.4-1.5-0.6c-0.6-0.2-1.2-0.4-1.7-0.5c-0.6-0.2-1.2-0.4-1.7-0.7c-0.6-0.2-1.1-0.6-1.5-0.9
		c-0.4-0.4-0.8-0.8-1.1-1.4c-0.3-0.5-0.4-1.2-0.4-2c0-0.7,0.1-1.4,0.4-2s0.7-1.2,1.3-1.7c0.6-0.5,1.2-0.9,2-1.2s1.7-0.4,2.8-0.4
		c1.2,0,2.3,0.2,3.2,0.6s1.8,0.9,2.5,1.6L125.9,129z"/>
	<path class="st1" d="M141.4,129c-0.1,0.3-0.4,0.4-0.7,0.4c-0.2,0-0.4-0.1-0.6-0.2c-0.2-0.1-0.5-0.3-0.8-0.4
		c-0.3-0.2-0.7-0.3-1.2-0.4c-0.5-0.1-1-0.2-1.6-0.2c-0.5,0-1,0.1-1.5,0.2c-0.4,0.1-0.8,0.3-1.1,0.6c-0.3,0.2-0.5,0.5-0.7,0.8
		c-0.2,0.3-0.2,0.7-0.2,1c0,0.5,0.1,0.9,0.4,1.2c0.3,0.3,0.6,0.6,1.1,0.8c0.4,0.2,0.9,0.4,1.5,0.6c0.6,0.2,1.1,0.4,1.7,0.6
		s1.2,0.4,1.7,0.7c0.6,0.2,1.1,0.5,1.5,0.9c0.4,0.4,0.8,0.8,1.1,1.3c0.3,0.5,0.4,1.1,0.4,1.9c0,0.8-0.1,1.6-0.4,2.3
		c-0.3,0.7-0.7,1.3-1.3,1.9c-0.6,0.5-1.3,0.9-2.2,1.2c-0.9,0.3-1.8,0.5-3,0.5c-1.3,0-2.4-0.2-3.5-0.6s-1.9-0.9-2.6-1.6l0.8-1.2
		c0.1-0.2,0.2-0.3,0.3-0.4s0.3-0.1,0.5-0.1c0.2,0,0.4,0.1,0.7,0.3c0.2,0.2,0.5,0.4,0.9,0.6s0.8,0.4,1.3,0.6c0.5,0.2,1.1,0.3,1.8,0.3
		c0.6,0,1.2-0.1,1.6-0.2s0.9-0.4,1.2-0.7c0.3-0.3,0.5-0.6,0.7-1c0.1-0.4,0.2-0.7,0.2-1.2c0-0.5-0.1-0.9-0.4-1.3
		c-0.3-0.3-0.6-0.6-1.1-0.8c-0.4-0.2-1-0.4-1.5-0.6c-0.6-0.2-1.2-0.4-1.7-0.5c-0.6-0.2-1.2-0.4-1.7-0.7c-0.6-0.2-1.1-0.6-1.5-0.9
		c-0.4-0.4-0.8-0.8-1.1-1.4c-0.3-0.5-0.4-1.2-0.4-2c0-0.7,0.1-1.4,0.4-2s0.7-1.2,1.3-1.7c0.6-0.5,1.2-0.9,2-1.2s1.7-0.4,2.8-0.4
		c1.2,0,2.3,0.2,3.2,0.6s1.8,0.9,2.5,1.6L141.4,129z"/>
	<path class="st1" d="M161.2,141.7c-0.4,0.5-0.9,0.9-1.4,1.3c-0.6,0.4-1.1,0.6-1.8,0.9c-0.6,0.2-1.3,0.4-2,0.5s-1.3,0.2-2,0.2
		c-1.3,0-2.4-0.2-3.5-0.6c-1.1-0.4-2-1-2.8-1.9c-0.8-0.8-1.4-1.8-1.8-3.1c-0.4-1.2-0.6-2.6-0.6-4.2c0-1.3,0.2-2.5,0.6-3.6
		c0.4-1.1,1-2.1,1.7-2.9c0.7-0.8,1.6-1.4,2.7-1.9c1.1-0.5,2.2-0.7,3.6-0.7c1.1,0,2.1,0.2,3,0.5c0.9,0.4,1.7,0.9,2.4,1.6
		c0.7,0.7,1.2,1.5,1.6,2.6c0.4,1,0.6,2.2,0.6,3.5c0,0.5-0.1,0.8-0.2,1c-0.1,0.2-0.3,0.3-0.6,0.3h-12.2c0,1.2,0.2,2.2,0.5,3
		c0.3,0.9,0.7,1.6,1.2,2.1c0.5,0.6,1.1,1,1.8,1.3c0.7,0.3,1.5,0.4,2.3,0.4c0.8,0,1.5-0.1,2.1-0.3c0.6-0.2,1.1-0.4,1.5-0.6
		c0.4-0.2,0.8-0.4,1.1-0.6c0.3-0.2,0.5-0.3,0.7-0.3c0.3,0,0.5,0.1,0.6,0.3L161.2,141.7z M158.6,133.1c0-0.7-0.1-1.4-0.3-2
		s-0.5-1.2-0.9-1.6s-0.9-0.8-1.5-1s-1.2-0.4-2-0.4c-1.5,0-2.8,0.4-3.6,1.3c-0.9,0.9-1.4,2.1-1.7,3.7H158.6z"/>
	<path class="st1" d="M168.7,117.7v26.5h-3.2v-26.5H168.7z"/>
	<path class="st1" d="M177.2,117.7v26.5H174v-26.5H177.2z"/>
	<path class="st1" d="M197.2,141.7c-0.4,0.5-0.9,0.9-1.4,1.3c-0.6,0.4-1.1,0.6-1.8,0.9c-0.6,0.2-1.3,0.4-2,0.5s-1.3,0.2-2,0.2
		c-1.3,0-2.4-0.2-3.5-0.6c-1.1-0.4-2-1-2.8-1.9c-0.8-0.8-1.4-1.8-1.8-3.1c-0.4-1.2-0.6-2.6-0.6-4.2c0-1.3,0.2-2.5,0.6-3.6
		c0.4-1.1,1-2.1,1.7-2.9c0.7-0.8,1.6-1.4,2.7-1.9c1.1-0.5,2.2-0.7,3.6-0.7c1.1,0,2.1,0.2,3,0.5c0.9,0.4,1.7,0.9,2.4,1.6
		c0.7,0.7,1.2,1.5,1.6,2.6c0.4,1,0.6,2.2,0.6,3.5c0,0.5-0.1,0.8-0.2,1c-0.1,0.2-0.3,0.3-0.6,0.3h-12.2c0,1.2,0.2,2.2,0.5,3
		c0.3,0.9,0.7,1.6,1.2,2.1s1.1,1,1.8,1.3c0.7,0.3,1.5,0.4,2.3,0.4c0.8,0,1.5-0.1,2.1-0.3c0.6-0.2,1.1-0.4,1.5-0.6
		c0.4-0.2,0.8-0.4,1.1-0.6c0.3-0.2,0.5-0.3,0.7-0.3c0.3,0,0.5,0.1,0.6,0.3L197.2,141.7z M194.6,133.1c0-0.7-0.1-1.4-0.3-2
		s-0.5-1.2-0.9-1.6s-0.9-0.8-1.5-1s-1.2-0.4-2-0.4c-1.5,0-2.8,0.4-3.6,1.3c-0.9,0.9-1.4,2.1-1.7,3.7H194.6z"/>
	<path class="st1" d="M204.5,129.7c0.6-1.2,1.3-2.2,2.1-2.9c0.8-0.7,1.9-1.1,3.1-1.1c0.4,0,0.8,0,1.1,0.1c0.4,0.1,0.7,0.2,0.9,0.4
		l-0.2,2.4c-0.1,0.3-0.3,0.5-0.5,0.5c-0.2,0-0.4,0-0.7-0.1c-0.3-0.1-0.7-0.1-1.1-0.1c-0.6,0-1.1,0.1-1.5,0.3
		c-0.4,0.2-0.9,0.4-1.2,0.7c-0.4,0.3-0.7,0.7-1,1.2c-0.3,0.5-0.5,1-0.8,1.7v11.5h-3.2V126h1.8c0.3,0,0.6,0.1,0.7,0.2
		c0.1,0.1,0.2,0.4,0.3,0.7L204.5,129.7z"/>
	<path class="st1" d="M218.6,120.3c0,0.3-0.1,0.6-0.2,0.9s-0.3,0.5-0.5,0.7c-0.2,0.2-0.5,0.4-0.7,0.5c-0.3,0.1-0.6,0.2-0.9,0.2
		c-0.3,0-0.6-0.1-0.9-0.2c-0.3-0.1-0.5-0.3-0.7-0.5c-0.2-0.2-0.4-0.4-0.5-0.7s-0.2-0.6-0.2-0.9s0.1-0.6,0.2-0.9
		c0.1-0.3,0.3-0.5,0.5-0.7s0.4-0.4,0.7-0.5c0.3-0.1,0.6-0.2,0.9-0.2c0.3,0,0.6,0.1,0.9,0.2c0.3,0.1,0.5,0.3,0.7,0.5s0.4,0.5,0.5,0.7
		C218.5,119.7,218.6,120,218.6,120.3z M217.9,126v18.2h-3.2V126H217.9z"/>
	<path class="st1" d="M238,141.7c-0.4,0.5-0.9,0.9-1.4,1.3c-0.6,0.4-1.1,0.6-1.8,0.9c-0.6,0.2-1.3,0.4-2,0.5s-1.3,0.2-2,0.2
		c-1.3,0-2.4-0.2-3.5-0.6c-1.1-0.4-2-1-2.8-1.9c-0.8-0.8-1.4-1.8-1.8-3.1c-0.4-1.2-0.6-2.6-0.6-4.2c0-1.3,0.2-2.5,0.6-3.6
		c0.4-1.1,1-2.1,1.7-2.9c0.7-0.8,1.6-1.4,2.7-1.9c1.1-0.5,2.2-0.7,3.6-0.7c1.1,0,2.1,0.2,3,0.5c0.9,0.4,1.7,0.9,2.4,1.6
		c0.7,0.7,1.2,1.5,1.6,2.6c0.4,1,0.6,2.2,0.6,3.5c0,0.5-0.1,0.8-0.2,1c-0.1,0.2-0.3,0.3-0.6,0.3h-12.2c0,1.2,0.2,2.2,0.5,3
		c0.3,0.9,0.7,1.6,1.2,2.1s1.1,1,1.8,1.3c0.7,0.3,1.5,0.4,2.3,0.4c0.8,0,1.5-0.1,2.1-0.3c0.6-0.2,1.1-0.4,1.5-0.6
		c0.4-0.2,0.8-0.4,1.1-0.6c0.3-0.2,0.5-0.3,0.7-0.3c0.3,0,0.5,0.1,0.6,0.3L238,141.7z M235.4,133.1c0-0.7-0.1-1.4-0.3-2
		s-0.5-1.2-0.9-1.6s-0.9-0.8-1.5-1s-1.2-0.4-2-0.4c-1.5,0-2.8,0.4-3.6,1.3c-0.9,0.9-1.4,2.1-1.7,3.7H235.4z"/>
</g>
<path class="st2" d="M71,169h155v33H71V169z"/>
<g class="st3">
	<path class="st0" d="M87.4,169.8c1.6,0,2.9,0.2,4.1,0.5c1.1,0.3,2.1,0.8,2.8,1.3c0.7,0.6,1.3,1.3,1.6,2.1c0.3,0.8,0.5,1.8,0.5,2.8
		c0,0.6-0.1,1.2-0.3,1.8s-0.5,1.1-0.9,1.6c-0.4,0.5-0.9,1-1.5,1.4c-0.6,0.4-1.3,0.7-2.1,1c1.9,0.4,3.3,1,4.3,2c1,1,1.4,2.3,1.4,3.9
		c0,1.1-0.2,2.1-0.6,3c-0.4,0.9-1,1.7-1.8,2.3c-0.8,0.6-1.7,1.1-2.9,1.5c-1.1,0.4-2.4,0.5-3.9,0.5h-9.1v-25.8H87.4z M82.7,172.5v8.8
		h4.6c1,0,1.8-0.1,2.6-0.3c0.7-0.2,1.3-0.5,1.8-0.9c0.5-0.4,0.8-0.8,1.1-1.4c0.2-0.5,0.3-1.1,0.3-1.8c0-1.5-0.5-2.6-1.4-3.3
		c-0.9-0.7-2.3-1.1-4.2-1.1H82.7z M88.3,192.8c1,0,1.9-0.1,2.6-0.3c0.7-0.2,1.3-0.5,1.8-1c0.5-0.4,0.8-0.9,1-1.5s0.3-1.2,0.3-1.9
		c0-1.3-0.5-2.4-1.4-3.2c-0.9-0.8-2.4-1.2-4.3-1.2h-5.6v9H88.3z"/>
	<path class="st0" d="M109.1,177c1.3,0,2.5,0.2,3.6,0.7c1.1,0.4,2,1.1,2.7,1.9c0.8,0.8,1.3,1.8,1.7,3s0.6,2.5,0.6,3.9
		c0,1.4-0.2,2.7-0.6,3.9c-0.4,1.2-1,2.1-1.7,3c-0.8,0.8-1.7,1.4-2.7,1.9c-1.1,0.4-2.3,0.7-3.6,0.7c-1.3,0-2.6-0.2-3.6-0.7
		c-1.1-0.4-2-1.1-2.7-1.9c-0.8-0.8-1.3-1.8-1.7-3c-0.4-1.2-0.6-2.4-0.6-3.9c0-1.4,0.2-2.7,0.6-3.9c0.4-1.2,1-2.1,1.7-3
		c0.8-0.8,1.7-1.4,2.7-1.9C106.6,177.3,107.8,177,109.1,177z M109.1,193.3c1.8,0,3.1-0.6,4-1.8s1.3-2.9,1.3-5c0-2.2-0.4-3.9-1.3-5.1
		s-2.2-1.8-4-1.8c-0.9,0-1.7,0.2-2.4,0.5c-0.7,0.3-1.2,0.8-1.7,1.4c-0.5,0.6-0.8,1.3-1,2.2c-0.2,0.9-0.3,1.8-0.3,2.9
		c0,2.2,0.4,3.8,1.3,5C106,192.7,107.3,193.3,109.1,193.3z"/>
	<path class="st0" d="M136.9,177.3v18.2H135c-0.5,0-0.7-0.2-0.9-0.7l-0.3-2c-0.8,0.9-1.7,1.6-2.7,2.1c-1,0.5-2.1,0.8-3.4,0.8
		c-1,0-1.9-0.2-2.6-0.5c-0.8-0.3-1.4-0.8-1.9-1.4c-0.5-0.6-0.9-1.3-1.2-2.2c-0.3-0.9-0.4-1.8-0.4-2.8v-11.6h3.2v11.6
		c0,1.4,0.3,2.4,0.9,3.2s1.6,1.1,2.9,1.1c0.9,0,1.8-0.2,2.7-0.7c0.8-0.4,1.6-1.1,2.3-1.9v-13.4H136.9z"/>
	<path class="st0" d="M158.9,195.5h-3.2V180h-9.4v10.9c0,0.8,0.2,1.3,0.6,1.7c0.4,0.4,0.9,0.6,1.4,0.6c0.3,0,0.6,0,0.9-0.1
		c0.2-0.1,0.5-0.2,0.6-0.3c0.2-0.1,0.3-0.2,0.5-0.3c0.1-0.1,0.2-0.1,0.3-0.1c0.2,0,0.3,0.1,0.5,0.3l0.9,1.5c-0.6,0.5-1.2,0.9-2,1.2
		s-1.6,0.4-2.4,0.4c-1.4,0-2.5-0.4-3.3-1.2c-0.8-0.8-1.2-2-1.2-3.5V180h-2.2c-0.2,0-0.4-0.1-0.5-0.2s-0.2-0.3-0.2-0.5V178l3-0.4
		l0.7-5.6c0-0.2,0.1-0.3,0.2-0.4s0.3-0.2,0.5-0.2h1.6v6.3h12.6V195.5z M159.7,171.5c0,0.3-0.1,0.6-0.2,0.9c-0.1,0.3-0.3,0.5-0.5,0.7
		s-0.5,0.4-0.7,0.5c-0.3,0.1-0.6,0.2-0.9,0.2c-0.3,0-0.6-0.1-0.9-0.2c-0.3-0.1-0.5-0.3-0.7-0.5c-0.2-0.2-0.4-0.4-0.5-0.7
		c-0.1-0.3-0.2-0.6-0.2-0.9c0-0.3,0.1-0.6,0.2-0.9s0.3-0.5,0.5-0.7c0.2-0.2,0.4-0.4,0.7-0.5c0.3-0.1,0.6-0.2,0.9-0.2
		c0.3,0,0.6,0.1,0.9,0.2c0.3,0.1,0.5,0.3,0.7,0.5s0.4,0.5,0.5,0.7S159.7,171.2,159.7,171.5z"/>
	<path class="st0" d="M179.2,177.3v24.4H176v-8.9c-0.8,0.9-1.6,1.6-2.6,2.2c-1,0.5-2.1,0.8-3.4,0.8c-1,0-2-0.2-2.8-0.6
		c-0.9-0.4-1.6-1-2.2-1.8c-0.6-0.8-1.1-1.8-1.4-2.9s-0.5-2.5-0.5-4c0-1.3,0.2-2.6,0.5-3.8s0.9-2.2,1.5-3c0.7-0.9,1.5-1.5,2.5-2
		c1-0.5,2.1-0.7,3.3-0.7c1.2,0,2.2,0.2,3,0.6c0.8,0.4,1.6,1,2.2,1.8l0.2-1.4c0.1-0.4,0.4-0.7,0.9-0.7H179.2z M176,181.6
		c-0.6-0.8-1.2-1.3-1.9-1.6s-1.5-0.5-2.4-0.5c-1.7,0-3,0.6-3.9,1.8s-1.4,2.9-1.4,5.2c0,1.2,0.1,2.2,0.3,3.1s0.5,1.5,0.9,2.1
		c0.4,0.5,0.9,0.9,1.5,1.2c0.6,0.3,1.2,0.4,2,0.4c1.1,0,2-0.2,2.8-0.7c0.8-0.5,1.5-1.2,2.2-2V181.6z"/>
	<path class="st0" d="M199.3,177.3v18.2h-1.9c-0.5,0-0.7-0.2-0.9-0.7l-0.3-2c-0.8,0.9-1.7,1.6-2.7,2.1c-1,0.5-2.1,0.8-3.4,0.8
		c-1,0-1.9-0.2-2.6-0.5c-0.8-0.3-1.4-0.8-1.9-1.4c-0.5-0.6-0.9-1.3-1.2-2.2c-0.3-0.9-0.4-1.8-0.4-2.8v-11.6h3.2v11.6
		c0,1.4,0.3,2.4,0.9,3.2s1.6,1.1,2.9,1.1c0.9,0,1.8-0.2,2.7-0.7c0.8-0.4,1.6-1.1,2.3-1.9v-13.4H199.3z"/>
	<path class="st0" d="M219.1,193c-0.4,0.5-0.9,0.9-1.4,1.3c-0.6,0.4-1.1,0.6-1.8,0.9c-0.6,0.2-1.3,0.4-2,0.5s-1.3,0.2-2,0.2
		c-1.3,0-2.4-0.2-3.5-0.6c-1.1-0.4-2-1-2.8-1.9c-0.8-0.8-1.4-1.8-1.8-3.1c-0.4-1.2-0.6-2.6-0.6-4.2c0-1.3,0.2-2.5,0.6-3.6
		c0.4-1.1,1-2.1,1.7-2.9c0.7-0.8,1.6-1.4,2.7-1.9c1.1-0.5,2.2-0.7,3.6-0.7c1.1,0,2.1,0.2,3,0.5s1.7,0.9,2.4,1.6s1.2,1.5,1.6,2.6
		c0.4,1,0.6,2.2,0.6,3.5c0,0.5-0.1,0.8-0.2,1c-0.1,0.2-0.3,0.3-0.6,0.3h-12.2c0,1.2,0.2,2.2,0.5,3c0.3,0.9,0.7,1.6,1.2,2.1
		s1.1,1,1.8,1.3c0.7,0.3,1.5,0.4,2.3,0.4c0.8,0,1.5-0.1,2.1-0.3c0.6-0.2,1.1-0.4,1.5-0.6c0.4-0.2,0.8-0.4,1.1-0.6
		c0.3-0.2,0.5-0.3,0.7-0.3c0.3,0,0.5,0.1,0.6,0.3L219.1,193z M216.5,184.4c0-0.7-0.1-1.4-0.3-2s-0.5-1.2-0.9-1.6s-0.9-0.8-1.5-1
		s-1.2-0.4-2-0.4c-1.5,0-2.8,0.4-3.6,1.3c-0.9,0.9-1.4,2.1-1.7,3.7H216.5z"/>
</g>
<rect x="63" y="411" class="st2" width="1" height="8"/>
</svg>
