<svg version="1.1" id="Calque_1" xmlns="http://www.w3.org/2000/svg" x="0" y="0" viewBox="0 0 300 300" xml:space="preserve"><style>.st0{fill:#418a8c}.st1{fill:#fff}.st2{fill:none}.st3{enable-background:new}</style><path class="st0" d="M135.7 37.7c-.2.2-.2 1.6.1 3.3.4 2.7.8 3 4.1 3.1 6.4.2 24.3 0 24.6-.3.1-.2.6-1.7.9-3.4l.7-3.1H151c-8.3.1-15.2.2-15.3.4zm2 10.1c-.2.4.9 7.7 2.6 16.4l2.9 15.6-2.6 3.4c-3.2 4.3-3.4 9.7-.6 15.3 2.5 4.8 2.5 4.7-.2 4.3-5.6-.8-7.7-13.7-3.3-20.2 1.4-2 2.5-4.1 2.5-4.6 0-.6-8.5-1-21.5-1H96l1.1 2.7c1.8 4.9 4.9 9.2 9.6 13.3 4.4 3.8 4.5 4.1 3.3 7-.7 1.7-2 3-3 3-2.4 0-3-1-1.9-2.9.9-1.3.2-2.5-3-5.8-8.2-8.7-11.7-17.9-8.3-21.9 2.2-2.6 10.4-6.9 15.1-7.9 3-.6 3.2-.9 1.9-1.9-.9-.6-2.6-1.8-3.7-2.6-2.7-1.8-2.7-3.6 0-4.3 1.3-.4 2-1.2 1.7-2.4-.3-1.6-1.4-1.8-9.8-1.8s-9.5.2-9.8 1.8c-.3 1.2.4 2 1.7 2.4 3.5.9 2.9 2-4.6 7.9L83 66.2v15.2c0 14.9.1 15.3 2.5 17.6 1.3 1.2 2.2 2.7 1.9 3.1-.3.5-3.9.9-7.9.9-6.7 0-7.6-.2-9-2.4-1.5-2.2-1.4-2.5 1.8-5.7 3.7-3.7 7.5-13.4 6.4-16.4-.6-1.5-2.6-1.6-18.7-1.4-9.8.1-18.4.5-19 .9-.6.4-.8 2-.4 3.8l.7 3.2h11.9c6.6 0 12.8.5 13.9 1 2.6 1.4 2.4 5-.6 9.4-1.4 2-2.5 4.6-2.5 5.6 0 2.5-2.2 2.6-4.4.1-1.6-1.7-1.5-2 1.9-5.4C67.8 89.4 67.1 89 50 89c-8.2 0-15 .3-15 .6 0 1.4 4.2 7.4 5.8 8.3 1.5.9 1.5 1.1-.2 3-1 1.1-3.4 2.1-5.5 2.3-3.2.3-3.6.6-4.1 3.6-.4 3-1.1 3.6-5.2 5-16.2 5.7-21 26.9-9.1 39.4l2.7 2.8h-4.3c-3.8 0-4.2.2-3.9 2.2.3 2.2.7 2.3 13.1 2.6 8.4.1 12.6-.1 12.2-.8-.3-.5-1.7-1-3.1-1-2.7 0-7.4-4-7.4-6.4 0-2.2 2.9-4.6 5.6-4.6 1.3 0 2.4-.5 2.4-1 0-.6 4.7-1 12-1h12v3.5c0 2-.7 5.2-1.5 7.2-.8 1.9-1.5 3.7-1.5 3.9 0 .2 52.6.4 116.9.4 101.1 0 117-.2 118.1-1.5 1.8-2.2.3-3.5-4.1-3.5-4.4 0-4.3.1-2.7-5.1 1-3.4 1.4-3.8 3.5-3.3 1.6.4 2.3.2 2.3-.9 0-.8-.6-1.7-1.4-2-.7-.3-1.8-1.8-2.4-3.4-.8-2.5-.5-4.1 1.9-9.7 4.3-10.1 3.7-15.4-1.9-17.4-2.8-1-28.7-1.6-30.2-.7-.4.2-.2 2 .4 4l1.1 3.5h10.2c9.2 0 10.3-.2 11.3-2 1.2-2.3 5.9-2.7 7.8-.8.7.7 1.2 2.3 1.2 3.6 0 3-4.8 13.5-5.9 12.8-.4-.3-1.6-2.6-2.5-5.1l-1.8-4.5h-20.4l-1.3 4.9c-1.5 6-3.1 8.4-4.9 7.2-1.1-.7-1-1.5.3-4.7 2.4-5.8 2.3-13.9-.4-17.4-1.1-1.6-2.1-3.4-2.1-4 0-.6 4.2-1 11.6-1 11.4 0 11.5 0 11.2-2.3-.3-1.9-1-2.3-5.8-2.7-5.6-.5-11-3.2-11-5.5 0-.6.7-2.5 1.5-4.2.8-1.6 1.8-5.1 2.1-7.7l.7-4.6h-9.6l.7 5.6c.3 3.1 1.3 6.6 2.1 7.7.8 1.2 1.5 2.7 1.5 3.3 0 2-6.5 5.4-10.3 5.4-4.4 0-5.2-1.1-2.6-3.3 1.7-1.5 1.9-3 1.9-13.6V74.2l-4.7-4.2c-4.3-3.6-4.6-4.2-3-5.1 2.7-1.6 1-2.9-3.9-2.9-4.8 0-5.2.4-2.7 3.2.9 1 1.2 1.8.7 1.8s-1.7.7-2.6 1.4c-1.6 1.2-1.5 1.6 2.1 5.4 4.9 5.1 6.8 11.9 5.1 18.1-1.4 5.1-6.4 11.1-9.4 11.1-3.6 0-3.7-1.1-.3-3.4 4.5-3 6.9-8.1 6.4-13.5-1.1-10.4-12.7-17.3-21.6-12.6-4.1 2.1-7.9 7-8.7 11.1-.9 4.6 1.9 11.8 5.7 14.6 3.5 2.6 3.7 3.8.5 3.8s-8.2-5.8-9.6-11.1c-1.7-6.2.7-14.4 5.4-18.1 2-1.7 2-1.8.1-1.8-3.4 0-9.7 4.3-11.6 8-3.6 6.7-2 14.2 4.1 19.3 1.6 1.4 3 2.8 3 3.2 0 .3-5.3.4-11.7.3-11.5-.3-11.8-.3-13.2-3-1.5-2.6-1.4-2.7 3.6-7.2 2.8-2.6 6.3-7 7.8-9.9l2.6-5.2-11.7-.3c-6.4-.1-11.9 0-12.2.3-.4.3-.1 1.4.6 2.3 3.1 4.5 4.4 7.8 4.4 11.7 0 4.7-2.4 10.3-4.8 11.2-2.4.9-2.9-.6-1.2-3.5 3.4-6 2.9-12.3-1.2-16.7l-2.1-2.2 2.6-13.9c1.4-7.7 2.8-14.9 3-16.1.5-2.2.4-2.2-9.7-1.9-5.7.2-11.5-.1-13-.5s-2.9-.4-3.1-.1zM222.3 80c3.2 3.6 4 9.7 1.5 12.7-1.7 2.1-2.6.5-2.5-4.3 0-3.8-.4-5-2.4-6.5-3-2.3-5.8-2.4-8.8-.3-1.9 1.4-2.5 1.4-3.2.3-.4-.8-.3-1.9.4-2.7 3.4-4.2 10.9-3.8 15 .8zm-70.2 7.8c-.7 1.4-.8 2.3-.1 2.7.5.3 1-.1 1-.9 0-1 .9-1.6 2.5-1.6s2.5.6 2.5 1.5c0 1.6-.6 1.9-5.1 2.9-1.8.4-2.9 1.4-3.3 3.2-.8 3.1-4 2.9-4.2-.3-.1-1.3.2-2.1.5-1.8 1.7 1 3.4-1.6 3.3-5-.2-4.8.6-6.1 2.5-4.2 1.2 1.1 1.2 1.9.4 3.5zm-4.3 2.5c.3 1.4-.1 1.8-2 1.5-1.2-.2-2.4-1.1-2.6-2.1-.3-1.4.1-1.8 2-1.5 1.2.2 2.4 1.1 2.6 2.1zm7.6 4.3c.9 2.4.7 3.4-.8 3.4-1.8 0-3.9-2.7-3.1-4 .9-1.5 3.2-1.2 3.9.6zM40.7 116.1C46.8 118.4 53 126.9 53 133c0 4.7-3.3 3.7-4.1-1.3-1.2-7.4-7.6-12.7-15.2-12.7-12.3 0-19.2 13.7-12.2 24.4 1.5 2.3 1.6 2.9.5 3.6-3.2 2-7-5.3-7-13.2 0-12.9 13.6-22.3 25.7-17.7zm73.2 1.8c6.6 4.7 8.6 11.9 5.3 19.4-2.9 6.6-7 8.9-14.9 8.5-6.7-.4-10-2.5-12.9-8-3-5.9-.9-16.1 4-19.4 5.6-3.6 13.8-3.8 18.5-.5zm29.2-1.9c5.2 1.5 6.4 3.2 4.4 6.3-1.4 2.2-1.9 2.4-4.9 1.5-4.8-1.5-8.1-.4-9.6 3.2-1.7 4.1-.2 9.1 3.1 10.7 1.8.9 3.5.9 6.8.1 3.5-.9 4.5-.8 5.2.3 3 4.7-2.2 8.4-10.9 7.7-4.8-.4-6-1-8.8-4.1-4-4.3-5.1-9.5-3.5-15.7 1.4-5.2 3.8-8 8.4-9.7 4.1-1.5 5.4-1.5 9.8-.3zm-57.7 2.2c.3 1.3.6 7.3.6 13.4 0 12.6-1 15.1-5.3 14L78 145v-22h-5.9l-.3 11.2c-.3 10.7-.4 11.3-2.4 11.6-4.4.6-5.4-2-5.4-14.8 0-6.5.3-12.5.6-13.4.5-1.3 2.4-1.6 10.4-1.6 9.3 0 9.8.1 10.4 2.2zm78.9 5.8l4.3 8 4.5-8c4.1-7.5 4.6-8 7.6-8 2.2 0 3.3.5 3.3 1.4 0 2-11.8 22.6-14.8 25.8-2 2.2-3.5 2.8-6.6 2.8-6.6 0-11.4-6.4-6.7-8.9 1.4-.8 2.4-.6 4.1.9 2.2 1.9 4 2.6 4 1.5 0-.3-2.4-4.7-5.3-9.8-7.8-13.5-7.8-13.7-2.1-13.7 3.1 0 3.6.5 7.7 8zm42.5 3.7c.2 9.1.6 11.3 1.7 11.3 1.8 0 2.8 3.5 2.3 8.1-.3 3.2-.6 3.4-3.8 3.4-2.9 0-3.6-.4-3.8-2.3-.3-2.1-.8-2.2-7.8-2.2-7.3 0-7.4 0-7.4 2.6 0 2.3-.3 2.5-3.2 2.2-3.2-.3-3.3-.4-3.6-5.6-.3-4.8-.1-5.3 2.2-6.1 2.9-1.2 3.3-2.3 4.1-11.6 1.1-12.5.3-11.6 10.3-11.3l8.7.3.3 11.2zm23.9-10.5c2.2 2.8 11.2 26 10.7 27.3-1.2 3-8.4.7-8.4-2.6 0-.5-2.4-.9-5.3-.9-4.8 0-5.5.3-6.5 2.5-1.2 2.5-2.7 3-5.6 1.9-2.3-.9-2.1-2.1 3-14.1 2.5-5.9 5-11.8 5.5-13.1.9-2.4 5-3.1 6.6-1zM34.5 130.3c-.1 2.9 1 3.6 1.9 1.2.7-1.9 4.6-2 4.6-.1 0 1.7-2.6 4-3.8 3.2-.9-.5-2.4 1.9-3.6 5.6-.3 1-1.2 1.8-2.1 1.8-2.1 0-1.9-3.7.3-4.9 1.7-1.1 1.5-1.2-2.8-1.4-1.5-.1-2.5-.8-2.5-1.7 0-1.1 1-1.5 3.3-1.3 2.7.1 3.1-.1 2.1-1.3-1.4-1.7-.4-4.7 1.4-4.1.6.2 1.2 1.6 1.2 3zm230 3.3c2 2.1 1.5 4.9-.9 4.9-2.3 0-4.1-2.7-3.3-4.9.8-2 2.1-2 4.2 0zm9.5.7c0 4-4.4 6.5-5.7 3.2-.6-1.8 2.3-5.5 4.4-5.5.7 0 1.3 1 1.3 2.3zm-234.3 3.3c.3.8.1 2-.6 2.7-1.4 1.4-4.7-1.5-3.7-3.2 1-1.6 3.6-1.3 4.3.5zm229.8 3.9c0 1.3-.8 2.1-2.2 2.3-1.9.3-2.3-.1-2.3-2.3s.4-2.6 2.3-2.3c1.4.2 2.2 1 2.2 2.3zm-5.7 1.7c.4 2-3 4-5.2 3.2-1.9-.7-2.1-4-.3-4.8 2.3-.9 5.2-.1 5.5 1.6zm13-1c1.7 1.7 1.5 2.6-.6 3.7-2.4 1.3-6.4-1.2-5.6-3.4.7-1.8 4.5-2 6.2-.3zm-7.5 5c1.4 2.1.2 4.8-2.2 4.8s-3.4-2.5-2-5.1c1.1-2.2 2.7-2.1 4.2.3z"/><path class="st0" d="M100 125c-3.1 3.1-2.7 9.3.6 11.9 3.5 2.8 6.9 2.6 9.9-.4 3.1-3 3.2-7.3.4-10.9-2.6-3.3-7.9-3.6-10.9-.6zm94.4 6l-.9 8h5.5v-8c0-7.1-.2-8-1.8-8-1.5 0-2 1.3-2.8 8zm31.7.1c-1.4 4.1-1.5 3.9 1.5 3.9 2.4 0 2.5-.3 1.9-2.8-1-4.2-2.2-4.6-3.4-1.1zm-95.5-75.8c-1.6 1.2-1.6 1.4.3 3.1 2.3 2.1 2.8 5.5.9 6-.7.2-5.8 1.1-11.4 1.9-9.6 1.5-21.4 5.1-21.4 6.5 0 .4 8.8.6 19.6.4l19.6-.3-.6-2.2c-.3-1.2-1.1-5.5-1.8-9.5-1.2-7.3-2-8.2-5.2-5.9zm33.1 14.4c-.3 1.6-.5 2.9-.4 3s4.6.3 10 .5c9.3.3 9.7.2 7.7-1.4-2.2-1.8-11.5-4.8-14.8-4.8-1.4 0-2.1.9-2.5 2.7zM38.4 151.2c1.2 5.9 3.2 7.8 8 7.8 4.2 0 4.5-.2 6-4 2.7-6.9 2.6-7-6.5-7h-8.1l.6 3.2zm-8.2 0c.3.7 1.5 1.5 2.8 1.6 2.1.3 2.2.2 1.1-1.2-1.6-1.9-4.4-2.1-3.9-.4zm55.3 18c-.3.8-.4 7-.3 13.9l.3 12.4 8.8.3c8.4.3 8.7.4 8.7 2.7 0 1.3.6 2.5 1.3 2.8 2.7.9 3.7-.6 3.7-5.4 0-4.2-.3-4.9-2-4.9-1.8 0-2-.8-2.2-11.3l-.3-11.2h-5l-.3 11.2-.3 11.3h-6.8l-.3-11.3c-.3-10.8-.4-11.2-2.6-11.5-1.2-.2-2.4.3-2.7 1zm28.9.1c-.2.7-.3 6.9-.2 13.8l.3 12.4H128c12.8 0 13.5-.1 13.5-2 0-1.8-.8-2-11-2.5l-11-.5v-6l10.3-.3c9.4-.2 10.2-.4 10.2-2.2 0-2.3.3-2.2-10.7-2.1-8.6 0-10.8-1-10.1-4.6.3-1.6 1.8-1.9 11.3-2.3 10.2-.5 11-.7 11-2.5 0-1.9-.8-2-13.3-2.3-10.3-.2-13.4 0-13.8 1.1zm35.1-.1c-.3.8-.4 7-.3 13.9l.3 12.4h2.5c2.3 0 2.5-.4 2.8-5.8l.3-5.8 3.7.3c3.7.3 3.7.3 3.8 4.9.1 5.4.8 6.9 3.5 6.9 1.8 0 1.9-.8 1.9-14 0-13-.1-14-1.9-14-2.7 0-3.8 2-3.7 6.8l.1 4.2h-7.4l-.3-5.3c-.3-4.5-.6-5.2-2.6-5.5-1.2-.2-2.4.3-2.7 1zm24.5 1.2c0 2.1.5 2.5 3.3 2.8l3.2.3.5 11c.5 10.5.6 11 2.8 11.3 1.3.2 2.2-.2 2.3-1 0-.7.1-5.8.2-11.3l.2-10 3.5-.5c2.7-.4 3.5-1 3.5-2.5 0-1.8-.8-2-9.7-2.3l-9.8-.3v2.5zm26 11.7c0 14 0 14 2.3 13.7 1.7-.2 2.3-1.1 2.7-3.8.5-3.3.7-3.5 5.1-4 6.3-.7 9.7-3.2 10.5-7.5 1.5-7.9-4.1-12.5-15.1-12.5H200v14.1zm12.5-7.9c1.7.8 2.5 1.9 2.5 3.8 0 3.6-1.7 5-6.2 5H205v-4.3c0-2.4.3-4.7.7-5 1-1 3.9-.8 6.8.5z"/><path class="st0" d="M32.8 171c-5.4 2.9-9 8.1-9.6 14-.5 5.6.4 10.4 1.8 9.5.5-.3.7.1.4.9-.4 1 .6 2.7 2.6 4.5 6.8 6.2 17.4 5.1 22-2.4 2.9-4.7 2.5-11.5-.7-11.5-1.1 0-1.3.7-.8 3.1 2.2 10-10.4 15.5-18.7 8-6-5.3-4.6-17.2 2.5-22.3 4.6-3.3 14.1-3.7 19.3-.9 5 2.7 6.4 3.8 9.8 8.3 4 5.3 6.6 14.6 6.6 23.3v7.3l-6.7 3.2c-11.4 5.3-16.8 12-14.3 18 3.7 8.8 16.7 1.3 21.6-12.5 2.4-6.9 3.1-7.2 16.9-8.1 15.2-1.1 31.3 2 51 9.8 4.4 1.7 8.4 3.4 8.8 3.8.5.4-2.9 2.3-7.5 4.2l-8.3 3.5-4.7-2.3c-13.9-7-36-8.8-42.5-3.4-5.4 4.4-4.6 10.4 1.9 14 8.4 4.7 25.2 3.4 40.5-3.1l4.2-1.8 4.8 3.6c5.4 4 11 10.7 14.2 17.1 1.2 2.3 2.5 4.2 2.9 4.2s2-2.6 3.7-5.8c3.1-6 14.6-18.2 17.2-18.2.9 0 5.9 1.4 11.2 3.2 8.2 2.8 11.1 3.2 19.6 3.3 11.9 0 16.7-1.8 19.3-7.2 1.5-3.1 1.5-3.7.1-6.1-2.4-4.4-7.3-6.2-16.5-6.2-10.7 0-17.1 1.3-26.4 5.3l-7.6 3.3-7.3-3c-3.9-1.7-7.2-3.6-7.2-4.1 0-.6 2.8-2.2 6.1-3.6s5.7-2.9 5.3-3.4c-.5-.4-.2-.5.5-.1s4.7-.4 9-1.8c15.6-5.2 34.7-6.9 47.1-4.3 5.5 1.2 5.5 1.2 7.8 7 5 13.2 14.8 20.2 20.3 14.7 1.1-1.1 2-3.2 2-4.6 0-3.4-3.1-8.6-4.7-8-.7.3-1.2 0-1-.6.3-1.4-6.8-6.4-11.3-7.9s-5-2.3-5-8.6c0-19.5 10.8-34.2 25.3-34.3 9.9 0 16.7 6.2 16.7 15.4 0 6.4-3.1 11.2-8.1 12.7-7.8 2.4-15.6-3.6-14.3-10.9.7-3.6-.9-4.4-2.6-1.2-2.8 5.2 2.9 14.3 9.7 15.6 10.5 2 18.4-4.9 18.5-16 .1-5.8-1.6-9.8-5.9-13.8-3.7-3.6-7.3-4.8-13.8-4.8-16.3 0-28.5 15.7-28.5 36.8v6.4l-2.7-.6c-6.7-1.5-21.8-1.8-30.5-.7-9.2 1.3-25.7 6.3-39.2 11.9l-7 2.8-12-4.8c-19.3-7.9-28.7-10-44.6-10.2-7.4 0-15.6.3-18.2.7l-4.8.8v-7.4c0-16.3-7.2-29.1-19.3-34.2-5.1-2.1-14.3-1.9-18.9.5zm31.7 52.2c-2 4.8-8.6 11.8-11.2 11.8-1.1 0-2.6-.7-3.3-1.5-2.8-3.4 2.6-10 11.6-14.5 4.6-2.2 5.2-1.2 2.9 4.2zM240 219c5.3 2.7 12 9.2 12 11.7 0 1.1-.7 2.7-1.6 3.4-3.6 3-13-6-15-14.4-.7-3.2-.5-3.3 4.6-.7zm-131.3 11c6.1 1.4 15.3 5 15.3 6 0 .5-3.7 2.1-8.2 3.6C100 245 83 243 82.2 235.7c-.5-4.4 4.4-6.7 14.3-6.7 4.4 0 9.9.5 12.2 1zm50.9 3l8.7 4.1-3.3 2.4c-3.9 2.8-11.7 12.1-12.6 14.7-.9 2.8-1.7 2.2-6.2-4.2-2.3-3.2-6-7.4-8.2-9.1-2.2-1.8-4-3.6-4-4 0-.4 3-1.9 6.8-3.5 3.7-1.5 7.1-3.1 7.7-3.6 1.4-1.2 1.6-1.1 11.1 3.2zm55.3-2.9c1.7.6 3.6 2 4.2 3 4.6 8.7-15.5 12.6-33.8 6.5-4.6-1.5-8.3-3-8.3-3.4 0-1 8.4-4.3 14.5-5.8 6.4-1.6 19.3-1.7 23.4-.3zM57.5 110h186v42.9h-186V110z"/><path class="st1" d="M75 167.9h150.2v33.6H75v-33.6z"/><path class="st2" d="M45.3 117.7h216.1v42H45.3v-42z"/><g class="st3"><path class="st1" d="M88.7 118.5l-10.5 25.8h-3.1l-10.5-25.8h2.8c.3 0 .6.1.8.2.2.2.3.4.4.6l7.3 18.2c.2.4.3.9.5 1.3.1.5.3 1 .4 1.5.1-.5.2-1 .4-1.5.1-.5.3-.9.4-1.3l7.3-18.2c.1-.2.2-.4.4-.6.2-.2.5-.3.8-.3h2.6zM88.2 128.6c1-1 2.1-1.7 3.3-2.2s2.5-.7 3.9-.7c1 0 1.9.2 2.7.5.8.3 1.5.8 2 1.4s.9 1.3 1.2 2.2c.3.9.4 1.8.4 2.8v11.7h-1.4c-.3 0-.6-.1-.7-.2-.2-.1-.3-.3-.4-.6l-.4-1.7c-.5.4-.9.8-1.4 1.2-.5.3-.9.6-1.4.9-.5.2-1 .4-1.6.5-.6.1-1.2.2-1.9.2s-1.4-.1-2-.3-1.2-.5-1.6-.9c-.5-.4-.8-.9-1.1-1.5-.3-.6-.4-1.3-.4-2.2 0-.7.2-1.4.6-2.1.4-.7 1-1.3 1.9-1.8.9-.5 2-.9 3.5-1.3 1.4-.3 3.2-.5 5.3-.6v-1.4c0-1.4-.3-2.5-.9-3.2s-1.5-1.1-2.7-1.1c-.8 0-1.5.1-2 .3-.5.2-1 .4-1.4.7-.4.2-.7.5-1 .7-.3.2-.6.3-.8.3-.2 0-.4-.1-.6-.2-.2-.1-.3-.3-.4-.4l-.7-1zm10.4 7.4c-1.5 0-2.7.2-3.8.4-1 .2-1.9.4-2.5.7-.7.3-1.1.7-1.4 1.1-.3.4-.4.9-.4 1.4 0 .5.1.9.2 1.2l.6.9c.3.2.6.4 1 .5.4.1.8.2 1.2.2.6 0 1.1-.1 1.5-.2s.9-.3 1.3-.5.8-.5 1.2-.8c.4-.3.7-.6 1.1-1V136zM110.7 120.3c0 .3-.1.6-.2.9s-.3.5-.5.7c-.2.2-.5.4-.7.5-.3.1-.6.2-.9.2-.3 0-.6-.1-.9-.2-.3-.1-.5-.3-.7-.5-.2-.2-.4-.4-.5-.7s-.2-.6-.2-.9.1-.6.2-.9c.1-.3.3-.5.5-.7s.4-.4.7-.5c.3-.1.6-.2.9-.2.3 0 .6.1.9.2.3.1.5.3.7.5s.4.5.5.7c.1.3.2.6.2.9zm-.7 5.7v18.2h-3.2V126h3.2zM125.9 129c-.1.3-.4.4-.7.4-.2 0-.4-.1-.6-.2-.2-.1-.5-.3-.8-.4-.3-.2-.7-.3-1.2-.4-.5-.1-1-.2-1.6-.2-.5 0-1 .1-1.5.2-.4.1-.8.3-1.1.6-.3.2-.5.5-.7.8-.2.3-.2.7-.2 1 0 .5.1.9.4 1.2.3.3.6.6 1.1.8.4.2.9.4 1.5.6.6.2 1.1.4 1.7.6s1.2.4 1.7.7c.6.2 1.1.5 1.5.9.4.4.8.8 1.1 1.3.3.5.4 1.1.4 1.9 0 .8-.1 1.6-.4 2.3-.3.7-.7 1.3-1.3 1.9-.6.5-1.3.9-2.2 1.2-.9.3-1.8.5-3 .5-1.3 0-2.4-.2-3.5-.6s-1.9-.9-2.6-1.6l.8-1.2c.1-.2.2-.3.3-.4s.3-.1.5-.1.4.1.7.3c.2.2.5.4.9.6s.8.4 1.3.6c.5.2 1.1.3 1.8.3.6 0 1.2-.1 1.6-.2s.9-.4 1.2-.7c.3-.3.5-.6.7-1 .1-.4.2-.7.2-1.2s-.1-.9-.4-1.3c-.3-.3-.6-.6-1.1-.8-.4-.2-1-.4-1.5-.6-.6-.2-1.2-.4-1.7-.5-.6-.2-1.2-.4-1.7-.7-.6-.2-1.1-.6-1.5-.9-.4-.4-.8-.8-1.1-1.4-.3-.5-.4-1.2-.4-2 0-.7.1-1.4.4-2s.7-1.2 1.3-1.7c.6-.5 1.2-.9 2-1.2s1.7-.4 2.8-.4c1.2 0 2.3.2 3.2.6s1.8.9 2.5 1.6l-.8.8zM141.4 129c-.1.3-.4.4-.7.4-.2 0-.4-.1-.6-.2-.2-.1-.5-.3-.8-.4-.3-.2-.7-.3-1.2-.4-.5-.1-1-.2-1.6-.2-.5 0-1 .1-1.5.2-.4.1-.8.3-1.1.6-.3.2-.5.5-.7.8-.2.3-.2.7-.2 1 0 .5.1.9.4 1.2.3.3.6.6 1.1.8.4.2.9.4 1.5.6.6.2 1.1.4 1.7.6s1.2.4 1.7.7c.6.2 1.1.5 1.5.9.4.4.8.8 1.1 1.3.3.5.4 1.1.4 1.9 0 .8-.1 1.6-.4 2.3-.3.7-.7 1.3-1.3 1.9-.6.5-1.3.9-2.2 1.2-.9.3-1.8.5-3 .5-1.3 0-2.4-.2-3.5-.6s-1.9-.9-2.6-1.6l.8-1.2c.1-.2.2-.3.3-.4s.3-.1.5-.1.4.1.7.3c.2.2.5.4.9.6s.8.4 1.3.6c.5.2 1.1.3 1.8.3.6 0 1.2-.1 1.6-.2s.9-.4 1.2-.7c.3-.3.5-.6.7-1 .1-.4.2-.7.2-1.2s-.1-.9-.4-1.3c-.3-.3-.6-.6-1.1-.8-.4-.2-1-.4-1.5-.6-.6-.2-1.2-.4-1.7-.5-.6-.2-1.2-.4-1.7-.7-.6-.2-1.1-.6-1.5-.9-.4-.4-.8-.8-1.1-1.4-.3-.5-.4-1.2-.4-2 0-.7.1-1.4.4-2s.7-1.2 1.3-1.7c.6-.5 1.2-.9 2-1.2s1.7-.4 2.8-.4c1.2 0 2.3.2 3.2.6s1.8.9 2.5 1.6l-.8.8zM161.2 141.7c-.4.5-.9.9-1.4 1.3-.6.4-1.1.6-1.8.9-.6.2-1.3.4-2 .5s-1.3.2-2 .2c-1.3 0-2.4-.2-3.5-.6-1.1-.4-2-1-2.8-1.9-.8-.8-1.4-1.8-1.8-3.1-.4-1.2-.6-2.6-.6-4.2 0-1.3.2-2.5.6-3.6.4-1.1 1-2.1 1.7-2.9.7-.8 1.6-1.4 2.7-1.9s2.2-.7 3.6-.7c1.1 0 2.1.2 3 .5.9.4 1.7.9 2.4 1.6.7.7 1.2 1.5 1.6 2.6.4 1 .6 2.2.6 3.5 0 .5-.1.8-.2 1-.1.2-.3.3-.6.3h-12.2c0 1.2.2 2.2.5 3 .3.9.7 1.6 1.2 2.1.5.6 1.1 1 1.8 1.3.7.3 1.5.4 2.3.4.8 0 1.5-.1 2.1-.3.6-.2 1.1-.4 1.5-.6.4-.2.8-.4 1.1-.6.3-.2.5-.3.7-.3.3 0 .5.1.6.3l.9 1.2zm-2.6-8.6c0-.7-.1-1.4-.3-2s-.5-1.2-.9-1.6-.9-.8-1.5-1-1.2-.4-2-.4c-1.5 0-2.8.4-3.6 1.3-.9.9-1.4 2.1-1.7 3.7h10zM168.7 117.7v26.5h-3.2v-26.5h3.2zM177.2 117.7v26.5H174v-26.5h3.2zM197.2 141.7c-.4.5-.9.9-1.4 1.3-.6.4-1.1.6-1.8.9-.6.2-1.3.4-2 .5s-1.3.2-2 .2c-1.3 0-2.4-.2-3.5-.6-1.1-.4-2-1-2.8-1.9-.8-.8-1.4-1.8-1.8-3.1-.4-1.2-.6-2.6-.6-4.2 0-1.3.2-2.5.6-3.6.4-1.1 1-2.1 1.7-2.9.7-.8 1.6-1.4 2.7-1.9s2.2-.7 3.6-.7c1.1 0 2.1.2 3 .5.9.4 1.7.9 2.4 1.6.7.7 1.2 1.5 1.6 2.6.4 1 .6 2.2.6 3.5 0 .5-.1.8-.2 1-.1.2-.3.3-.6.3h-12.2c0 1.2.2 2.2.5 3 .3.9.7 1.6 1.2 2.1s1.1 1 1.8 1.3c.7.3 1.5.4 2.3.4.8 0 1.5-.1 2.1-.3.6-.2 1.1-.4 1.5-.6.4-.2.8-.4 1.1-.6.3-.2.5-.3.7-.3.3 0 .5.1.6.3l.9 1.2zm-2.6-8.6c0-.7-.1-1.4-.3-2s-.5-1.2-.9-1.6-.9-.8-1.5-1-1.2-.4-2-.4c-1.5 0-2.8.4-3.6 1.3-.9.9-1.4 2.1-1.7 3.7h10zM204.5 129.7c.6-1.2 1.3-2.2 2.1-2.9.8-.7 1.9-1.1 3.1-1.1.4 0 .8 0 1.1.1.4.1.7.2.9.4l-.2 2.4c-.1.3-.3.5-.5.5s-.4 0-.7-.1c-.3-.1-.7-.1-1.1-.1-.6 0-1.1.1-1.5.3-.4.2-.9.4-1.2.7-.4.3-.7.7-1 1.2-.3.5-.5 1-.8 1.7v11.5h-3.2V126h1.8c.3 0 .6.1.7.2.1.1.2.4.3.7l.2 2.8zM218.6 120.3c0 .3-.1.6-.2.9s-.3.5-.5.7c-.2.2-.5.4-.7.5-.3.1-.6.2-.9.2-.3 0-.6-.1-.9-.2-.3-.1-.5-.3-.7-.5-.2-.2-.4-.4-.5-.7s-.2-.6-.2-.9.1-.6.2-.9c.1-.3.3-.5.5-.7s.4-.4.7-.5c.3-.1.6-.2.9-.2.3 0 .6.1.9.2.3.1.5.3.7.5s.4.5.5.7c.1.3.2.6.2.9zm-.7 5.7v18.2h-3.2V126h3.2zM238 141.7c-.4.5-.9.9-1.4 1.3-.6.4-1.1.6-1.8.9-.6.2-1.3.4-2 .5s-1.3.2-2 .2c-1.3 0-2.4-.2-3.5-.6-1.1-.4-2-1-2.8-1.9-.8-.8-1.4-1.8-1.8-3.1-.4-1.2-.6-2.6-.6-4.2 0-1.3.2-2.5.6-3.6.4-1.1 1-2.1 1.7-2.9.7-.8 1.6-1.4 2.7-1.9s2.2-.7 3.6-.7c1.1 0 2.1.2 3 .5.9.4 1.7.9 2.4 1.6.7.7 1.2 1.5 1.6 2.6.4 1 .6 2.2.6 3.5 0 .5-.1.8-.2 1-.1.2-.3.3-.6.3h-12.2c0 1.2.2 2.2.5 3 .3.9.7 1.6 1.2 2.1s1.1 1 1.8 1.3c.7.3 1.5.4 2.3.4.8 0 1.5-.1 2.1-.3.6-.2 1.1-.4 1.5-.6.4-.2.8-.4 1.1-.6.3-.2.5-.3.7-.3.3 0 .5.1.6.3l.9 1.2zm-2.6-8.6c0-.7-.1-1.4-.3-2s-.5-1.2-.9-1.6-.9-.8-1.5-1-1.2-.4-2-.4c-1.5 0-2.8.4-3.6 1.3-.9.9-1.4 2.1-1.7 3.7h10z"/></g><path class="st2" d="M71 169h155v33H71v-33z"/><g class="st3"><path class="st0" d="M87.4 169.8c1.6 0 2.9.2 4.1.5 1.1.3 2.1.8 2.8 1.3.7.6 1.3 1.3 1.6 2.1.3.8.5 1.8.5 2.8 0 .6-.1 1.2-.3 1.8s-.5 1.1-.9 1.6-.9 1-1.5 1.4c-.6.4-1.3.7-2.1 1 1.9.4 3.3 1 4.3 2s1.4 2.3 1.4 3.9c0 1.1-.2 2.1-.6 3-.4.9-1 1.7-1.8 2.3-.8.6-1.7 1.1-2.9 1.5-1.1.4-2.4.5-3.9.5H79v-25.8h8.4zm-4.7 2.7v8.8h4.6c1 0 1.8-.1 2.6-.3.7-.2 1.3-.5 1.8-.9s.8-.8 1.1-1.4c.2-.5.3-1.1.3-1.8 0-1.5-.5-2.6-1.4-3.3-.9-.7-2.3-1.1-4.2-1.1h-4.8zm5.6 20.3c1 0 1.9-.1 2.6-.3.7-.2 1.3-.5 1.8-1 .5-.4.8-.9 1-1.5s.3-1.2.3-1.9c0-1.3-.5-2.4-1.4-3.2-.9-.8-2.4-1.2-4.3-1.2h-5.6v9h5.6zM109.1 177c1.3 0 2.5.2 3.6.7 1.1.4 2 1.1 2.7 1.9.8.8 1.3 1.8 1.7 3s.6 2.5.6 3.9-.2 2.7-.6 3.9c-.4 1.2-1 2.1-1.7 3-.8.8-1.7 1.4-2.7 1.9-1.1.4-2.3.7-3.6.7-1.3 0-2.6-.2-3.6-.7-1.1-.4-2-1.1-2.7-1.9-.8-.8-1.3-1.8-1.7-3-.4-1.2-.6-2.4-.6-3.9 0-1.4.2-2.7.6-3.9.4-1.2 1-2.1 1.7-3 .8-.8 1.7-1.4 2.7-1.9 1.1-.4 2.3-.7 3.6-.7zm0 16.3c1.8 0 3.1-.6 4-1.8s1.3-2.9 1.3-5c0-2.2-.4-3.9-1.3-5.1s-2.2-1.8-4-1.8c-.9 0-1.7.2-2.4.5s-1.2.8-1.7 1.4c-.5.6-.8 1.3-1 2.2-.2.9-.3 1.8-.3 2.9 0 2.2.4 3.8 1.3 5 1 1.1 2.3 1.7 4.1 1.7zM136.9 177.3v18.2H135c-.5 0-.7-.2-.9-.7l-.3-2c-.8.9-1.7 1.6-2.7 2.1-1 .5-2.1.8-3.4.8-1 0-1.9-.2-2.6-.5-.8-.3-1.4-.8-1.9-1.4-.5-.6-.9-1.3-1.2-2.2-.3-.9-.4-1.8-.4-2.8v-11.6h3.2v11.6c0 1.4.3 2.4.9 3.2s1.6 1.1 2.9 1.1c.9 0 1.8-.2 2.7-.7.8-.4 1.6-1.1 2.3-1.9v-13.4h3.3zM158.9 195.5h-3.2V180h-9.4v10.9c0 .8.2 1.3.6 1.7.4.4.9.6 1.4.6.3 0 .6 0 .9-.1.2-.1.5-.2.6-.3.2-.1.3-.2.5-.3.1-.1.2-.1.3-.1.2 0 .3.1.5.3l.9 1.5c-.6.5-1.2.9-2 1.2s-1.6.4-2.4.4c-1.4 0-2.5-.4-3.3-1.2-.8-.8-1.2-2-1.2-3.5V180h-2.2c-.2 0-.4-.1-.5-.2s-.2-.3-.2-.5V178l3-.4.7-5.6c0-.2.1-.3.2-.4s.3-.2.5-.2h1.6v6.3h12.6v17.8zm.8-24c0 .3-.1.6-.2.9-.1.3-.3.5-.5.7s-.5.4-.7.5c-.3.1-.6.2-.9.2-.3 0-.6-.1-.9-.2-.3-.1-.5-.3-.7-.5-.2-.2-.4-.4-.5-.7-.1-.3-.2-.6-.2-.9 0-.3.1-.6.2-.9s.3-.5.5-.7c.2-.2.4-.4.7-.5.3-.1.6-.2.9-.2.3 0 .6.1.9.2.3.1.5.3.7.5s.4.5.5.7.2.6.2.9zM179.2 177.3v24.4H176v-8.9c-.8.9-1.6 1.6-2.6 2.2-1 .5-2.1.8-3.4.8-1 0-2-.2-2.8-.6-.9-.4-1.6-1-2.2-1.8-.6-.8-1.1-1.8-1.4-2.9s-.5-2.5-.5-4c0-1.3.2-2.6.5-3.8s.9-2.2 1.5-3c.7-.9 1.5-1.5 2.5-2s2.1-.7 3.3-.7c1.2 0 2.2.2 3 .6.8.4 1.6 1 2.2 1.8l.2-1.4c.1-.4.4-.7.9-.7h2zm-3.2 4.3c-.6-.8-1.2-1.3-1.9-1.6s-1.5-.5-2.4-.5c-1.7 0-3 .6-3.9 1.8s-1.4 2.9-1.4 5.2c0 1.2.1 2.2.3 3.1s.5 1.5.9 2.1c.4.5.9.9 1.5 1.2.6.3 1.2.4 2 .4 1.1 0 2-.2 2.8-.7.8-.5 1.5-1.2 2.2-2v-9zM199.3 177.3v18.2h-1.9c-.5 0-.7-.2-.9-.7l-.3-2c-.8.9-1.7 1.6-2.7 2.1-1 .5-2.1.8-3.4.8-1 0-1.9-.2-2.6-.5-.8-.3-1.4-.8-1.9-1.4-.5-.6-.9-1.3-1.2-2.2-.3-.9-.4-1.8-.4-2.8v-11.6h3.2v11.6c0 1.4.3 2.4.9 3.2s1.6 1.1 2.9 1.1c.9 0 1.8-.2 2.7-.7.8-.4 1.6-1.1 2.3-1.9v-13.4h3.3zM219.1 193c-.4.5-.9.9-1.4 1.3-.6.4-1.1.6-1.8.9-.6.2-1.3.4-2 .5s-1.3.2-2 .2c-1.3 0-2.4-.2-3.5-.6-1.1-.4-2-1-2.8-1.9-.8-.8-1.4-1.8-1.8-3.1-.4-1.2-.6-2.6-.6-4.2 0-1.3.2-2.5.6-3.6.4-1.1 1-2.1 1.7-2.9.7-.8 1.6-1.4 2.7-1.9s2.2-.7 3.6-.7c1.1 0 2.1.2 3 .5s1.7.9 2.4 1.6 1.2 1.5 1.6 2.6c.4 1 .6 2.2.6 3.5 0 .5-.1.8-.2 1-.1.2-.3.3-.6.3h-12.2c0 1.2.2 2.2.5 3 .3.9.7 1.6 1.2 2.1s1.1 1 1.8 1.3c.7.3 1.5.4 2.3.4.8 0 1.5-.1 2.1-.3.6-.2 1.1-.4 1.5-.6.4-.2.8-.4 1.1-.6.3-.2.5-.3.7-.3.3 0 .5.1.6.3l.9 1.2zm-2.6-8.6c0-.7-.1-1.4-.3-2s-.5-1.2-.9-1.6-.9-.8-1.5-1-1.2-.4-2-.4c-1.5 0-2.8.4-3.6 1.3-.9.9-1.4 2.1-1.7 3.7h10z"/></g><path class="st2" d="M63 411h1v8h-1z"/></svg>