<svg xmlns="http://www.w3.org/2000/svg" viewBox="0 0 490.996 490.996"><path d="M484.058 112.28a38.799 38.799 0 0 0-31.816-16.614h-94.624c13.291 2.775 24.603 11.714 29.943 24.615 1.063 2.569 1.761 5.212 2.283 7.869h62.396a6.31 6.31 0 0 1 5.155 2.67 6.324 6.324 0 0 1 .73 5.791l-44.992 121.107a6.298 6.298 0 0 1-5.887 4.102H154.939L114.734 90.314c-5.01-21.286-23.772-36.153-45.631-36.153H24.361C10.912 54.161 0 65.065 0 78.522s10.912 24.362 24.361 24.362h43.286l54.131 230.919c4.914 20.864 23.058 35.479 44.36 36.042-12.532 9.103-20.764 23.765-20.764 40.436 0 27.662 22.429 50.078 50.09 50.078 27.662 0 50.072-22.416 50.072-50.078 0-16.605-8.17-31.212-20.623-40.326h93.421c-12.454 9.114-20.634 23.721-20.634 40.326 0 27.662 22.428 50.078 50.083 50.078 27.646 0 50.072-22.416 50.072-50.078 0-16.605-8.187-31.212-20.634-40.326h22.714c13.448 0 24.361-10.901 24.361-24.361 0-13.457-10.913-24.361-24.361-24.361h-231.07l-6.313-26.931h244.693c16.113 0 30.703-10.143 36.338-25.256l44.994-121.118c4.409-11.882 2.728-25.196-4.519-35.648z"/><path d="M275.701 209.63a9.051 9.051 0 0 0 6.437 2.673 8.987 8.987 0 0 0 6.426-2.673l67.007-66.987a9.096 9.096 0 0 0 1.986-9.935c-.923-2.221-3.986-5.64-8.422-5.64h-25.886V39.775c-.017-5.035-4.094-9.137-9.138-9.137h-63.964c-5.044 0-9.12 4.102-9.12 9.12v87.32h-25.878c-4.144 0-7.473 3.332-8.424 5.622a9.145 9.145 0 0 0 1.962 9.943l67.014 66.987z"/></svg>